<svg width="410" height="320" xmlns="http://www.w3.org/2000/svg">

 <g>
  <title>background</title>
  <rect fill="none" id="canvas_background" height="322" width="412" y="-1" x="-1"/>
 </g>
 <g>
  <title>Layer 1</title>
  <g id="svgg">
   <path fill-rule="evenodd" fill="#ffffff" d="m223.679994,103.611002l-1.786,1.943l1.943,-1.786c1.808,-1.662 2.181,-2.1 1.786,-2.1c-0.087,0 -0.961,0.874 -1.943,1.943m18.282,51.425c0,0.997 0.107,1.405 0.237,0.906c0.131,-0.498 0.131,-1.314 0,-1.813c-0.13,-0.499 -0.237,-0.091 -0.237,0.907m-41.065,8.146l-3.873,4.002l3.684,-3.354c3.097,-2.819 4.745,-4.649 4.188,-4.649c-0.07,0 -1.869,1.8 -3.999,4.001m9.047,-2.317l-1.522,1.684l1.684,-1.522c1.57,-1.419 1.923,-1.846 1.522,-1.846c-0.089,0 -0.847,0.758 -1.684,1.684m110.32,19.818c-0.001,2.565 0.086,3.68 0.195,2.477c0.109,-1.202 0.11,-3.301 0.003,-4.663c-0.107,-1.362 -0.196,-0.378 -0.198,2.186m-130.106,0.304c-1.98,1.894 -2.505,2.546 -2.051,2.546c0.083,0 1.181,-1.049 2.44,-2.332c2.85,-2.904 2.58,-3.053 -0.389,-0.214m51.862,4.878c0.002,2.279 0.093,3.148 0.202,1.929c0.11,-1.219 0.108,-3.084 -0.003,-4.145c-0.112,-1.061 -0.201,-0.064 -0.199,2.216m-195.644,77.827c0.641,0.123 1.69,0.123 2.331,0c0.642,-0.124 0.117,-0.225 -1.165,-0.225c-1.283,0 -1.807,0.101 -1.166,0.225m33.031,14.66c-0.516,0.57 -0.705,1.036 -0.42,1.036c0.285,0 0.94,-0.466 1.456,-1.036c0.516,-0.57 0.705,-1.037 0.42,-1.037c-0.285,0 -0.94,0.467 -1.456,1.037m75.544,5.181c0,1.567 0.097,2.209 0.216,1.425c0.118,-0.784 0.118,-2.066 0,-2.85c-0.119,-0.783 -0.216,-0.142 -0.216,1.425" id="path0"/>
   <path fill-rule="evenodd" fill="#c9ae50" d="m187.091994,73.469002c-0.172,0.449 0.294,5.637 1.036,11.528c0.742,5.892 1.454,11.878 1.581,13.303c0.127,1.425 0.585,5.039 1.017,8.031c0.432,2.992 0.934,6.839 1.116,8.549c0.182,1.71 0.897,7.446 1.59,12.747c1.534,11.733 1.534,11.718 0.122,16.102c-1.573,4.884 -1.645,4.739 -2.957,-5.921c-0.64,-5.201 -1.611,-12.954 -2.158,-17.228c-0.547,-4.275 -1.13,-9.055 -1.296,-10.622c-0.413,-3.896 -1.724,-14.249 -2.111,-16.672c-0.28,-1.751 -0.486,-1.981 -1.775,-1.981c-2.072,0 -2.059,-0.341 -0.471,12.176c1.675,13.209 3.14,25.12 3.409,27.72c0.255,2.462 0.625,5.432 1.517,12.177c0.414,3.134 0.865,6.885 1,8.334c0.136,1.449 0.392,3.012 0.569,3.473c0.267,0.696 -0.631,3.81 -2.198,7.623c-0.537,1.305 -1.073,3.322 -1.16,4.361c-0.186,2.233 -1.451,-4.92 -1.824,-10.32c-0.118,-1.71 -0.568,-5.557 -0.999,-8.549c-1.037,-7.19 -3.499,-26.836 -3.896,-31.088c-0.173,-1.852 -0.49,-3.31 -0.704,-3.238c-0.214,0.071 -0.998,0.129 -1.744,0.129c-1.354,0 -1.355,0.003 -1.012,3.238c0.19,1.781 0.446,4.288 0.571,5.57c0.124,1.283 0.591,4.982 1.038,8.221c1.019,7.397 0.932,7.436 -1.495,0.678c-1.093,-3.042 -2.449,-6.73 -3.013,-8.196c-0.565,-1.465 -1.09,-2.981 -1.168,-3.368c-0.135,-0.67 -0.439,-1.495 -2.072,-5.625c-0.394,-0.997 -1.108,-2.918 -1.586,-4.269c-0.479,-1.351 -1.086,-2.59 -1.351,-2.753c-1.235,-0.763 -0.939,1.743 0.721,6.113c1.002,2.637 3.38,9.109 5.283,14.381c1.904,5.272 4.112,11.334 4.908,13.471c1.412,3.795 2.105,8.071 4.423,27.296c0.811,6.727 0.806,6.887 -0.306,10.622c-1.49,5.004 -1.878,5.286 -2.267,1.649c-0.179,-1.671 -0.913,-7.485 -1.63,-12.919c-0.718,-5.435 -1.252,-10.098 -1.187,-10.363c0.065,-0.265 -0.027,-1.298 -0.206,-2.295c-0.661,-3.702 -2.544,-18.838 -2.544,-20.454c0,-0.92 -0.167,-1.944 -0.371,-2.274c-0.496,-0.803 -3.812,-0.15 -3.491,0.687c0.13,0.339 0.392,2.231 0.582,4.204c0.19,1.974 0.917,7.829 1.616,13.013c0.699,5.184 1.226,9.614 1.173,9.845c-0.054,0.23 0.052,1.235 0.234,2.233c0.183,0.997 0.443,3.096 0.578,4.663c0.134,1.567 0.608,5.298 1.051,8.29c0.444,2.992 0.911,6.839 1.038,8.549c0.127,1.71 0.388,4.411 0.58,6.002c0.325,2.687 0.051,3.792 -3.847,15.544c-16.918,51.002 -19.746,59.765 -19.389,60.087c0.559,0.507 5.863,2.197 6.112,1.948c0.112,-0.111 4.905,-14.416 10.652,-31.788c5.747,-17.372 10.77,-31.954 11.163,-32.405c0.393,-0.45 0.574,-0.96 0.401,-1.133c-0.173,-0.172 0.444,-2.589 1.371,-5.37l1.684,-5.056l8.629,-8.836c7.636,-7.82 17.488,-18.116 32.363,-33.823l4.615,-4.873l-1.138,-1.133l-1.139,-1.133l-11.232,11.658c-6.178,6.412 -14.185,14.69 -17.793,18.394c-3.608,3.705 -7.555,7.848 -8.771,9.208c-2.762,3.087 -2.916,2.921 -1.548,-1.672c1.613,-5.419 2.794,-7.802 5.015,-10.126c10.021,-10.488 17.079,-17.578 17.401,-17.478c0.213,0.066 0.33,-0.083 0.259,-0.331c-0.071,-0.248 5.399,-6.161 12.157,-13.14l12.286,-12.69l-1.287,-1.209l-1.288,-1.209l-8.406,8.779c-4.623,4.829 -11.448,11.928 -15.166,15.775c-3.717,3.847 -8.597,8.918 -10.843,11.269c-2.246,2.351 -4.251,4.275 -4.454,4.275c-0.596,0 5.059,-16.061 6.085,-17.283c0.513,-0.611 3.63,-3.909 6.926,-7.328c3.296,-3.42 9.01,-9.365 12.699,-13.211c3.688,-3.846 9.433,-9.791 12.767,-13.212c9.225,-9.465 9.307,-9.578 7.965,-10.92c-1.183,-1.183 -1.805,-0.904 -4.362,1.954c-2.336,2.61 -7.599,8.094 -23.508,24.495c-4.194,4.323 -8.116,8.485 -8.716,9.248c-1.842,2.341 -2.107,1.553 -0.71,-2.111c0.734,-1.923 1.433,-4.006 1.554,-4.628c0.121,-0.622 0.396,-1.606 0.611,-2.187c0.354,-0.956 9.119,-10.307 24.817,-26.475c17.506,-18.03 16.942,-17.335 15.286,-18.834c-1.036,-0.937 -6.087,3.987 -32.21,31.398c-2.376,2.494 -4.391,4.462 -4.478,4.375c-0.087,-0.087 1.362,-4.786 3.22,-10.442c3.849,-11.711 3.841,-11.151 0.168,-12.326c-3.487,-1.115 -2.503,-2.964 -9.295,17.487c-3.218,9.689 -5.915,17.383 -5.993,17.098c-0.226,-0.827 -2.724,-20.412 -3.04,-23.834c-0.158,-1.71 -0.522,-4.741 -0.808,-6.736c-0.287,-1.994 -0.615,-4.559 -0.73,-5.699c-0.115,-1.14 -0.565,-4.987 -1,-8.549c-0.436,-3.562 -0.921,-7.639 -1.08,-9.06c-0.159,-1.42 -0.419,-2.994 -0.579,-3.497c-0.365,-1.15 -2.725,-1.223 -3.157,-0.098m39.465,189.497c-6.479,1.936 -9.208,6.809 -6.653,11.881c0.684,1.358 0.626,1.497 -1.363,3.294c-8.313,7.51 0.822,19.14 15.011,19.115c12.434,-0.023 21.945,-9.442 15.769,-15.618c-1.67,-1.669 -1.613,-1.932 0.782,-3.641c6.69,-4.775 4.669,-13.629 -2.977,-13.045c-3.73,0.285 -6.985,4.591 -3.47,4.591c0.891,0 1.292,0.283 1.287,0.907c-0.013,1.472 -0.58,1.975 -4.396,3.897c-5.141,2.59 -6.995,4.906 -6.995,8.736c0,3.481 1.773,4.565 3.284,2.007c1.162,-1.968 3.131,-2.526 4.509,-1.279c3.499,3.166 -2.611,9.365 -7.378,7.485c-5.796,-2.286 -8.733,-10.3 -4.301,-11.739c2.851,-0.926 3.746,-5.35 1.082,-5.35c-2.33,0 -3.622,-2.856 -2.359,-5.216c0.657,-1.228 2.665,-1.305 4.4,-0.168c2.602,1.705 4.993,-0.215 3.888,-3.122c-0.929,-2.444 -6.266,-3.887 -10.12,-2.735m55.172,0.336c-14.114,1.449 -19.949,18.774 -9.939,29.509c3.258,3.494 10.229,5.54 14.356,4.213c7.624,-2.45 9.185,-3.494 10.176,-6.805c1.101,-3.673 -0.703,-5.729 -3.158,-3.6c-5.964,5.173 -14.278,0.692 -15.306,-8.248c-1.131,-9.844 7.724,-11.71 12.425,-2.618c1.226,2.37 2.538,2.839 4.822,1.723c4.238,-2.071 1.762,-13.421 -2.685,-12.305c-0.624,0.156 -2.421,-0.301 -4.097,-1.042c-1.643,-0.727 -3.039,-1.288 -3.102,-1.248c-0.063,0.041 -1.634,0.23 -3.492,0.421m52.341,0.059c-0.712,0.219 -2.122,0.535 -3.133,0.703c-4.701,0.781 -6.589,5.197 -4.944,11.568c0.354,1.372 0.283,1.683 -0.384,1.683c-2.165,0 -1.662,5.023 0.529,5.274c2.524,0.289 2.473,6.432 -0.075,9.056c-2.137,2.2 -2.151,2.266 -0.848,3.877c1.192,1.474 9.812,2.075 13.787,0.962c2.945,-0.825 3.648,-3.682 1.16,-4.713c-1.983,-0.821 -2.465,-1.912 -2.465,-5.583c0,-3.227 0.427,-3.95 2.332,-3.95c0.868,0 1.062,-0.398 1.194,-2.461l0.158,-2.462l-1.838,0c-1.386,0 -2.176,-0.379 -3.213,-1.543c-0.757,-0.849 -1.749,-1.665 -2.206,-1.812c-1.359,-0.439 -2.786,-3.363 -2.065,-4.232c0.819,-0.986 2.135,-0.475 4.266,1.656c3.04,3.04 6.553,2.024 6.553,-1.896c0,-2.991 -2.768,-5.644 -5.889,-5.644c-0.703,0 -1.356,-0.198 -1.451,-0.44c-0.095,-0.243 -0.755,-0.262 -1.468,-0.043m-294.37,0.901c-0.945,0.662 -1.379,3.209 -0.546,3.209c3.398,0 3.979,22.251 0.651,24.946c-1.073,0.869 -1.347,2.231 -0.757,3.768c0.508,1.325 21.369,1.185 24.338,-0.163c4.559,-2.071 6.699,-5.874 5.937,-10.555c-0.439,-2.699 -2.786,-6.079 -4.221,-6.079c-1.151,0 -0.988,-1.655 0.315,-3.204c2.826,-3.357 1.445,-9.596 -2.589,-11.705c-2.096,-1.096 -21.612,-1.279 -23.128,-0.217m62.246,0.952c-5.899,2.041 -7.604,4.42 -4.114,5.737l1.587,0.599l-0.162,9.849c-0.154,9.443 -0.209,9.894 -1.327,10.934c-2.403,2.237 -0.964,4.614 2.887,4.769c9.238,0.371 11.88,-1.037 9.419,-5.019c-1.085,-1.756 -1.243,-3.819 -0.31,-4.037c0.257,-0.06 1.656,1.671 3.109,3.846c3.106,4.651 3.877,5.113 8.547,5.113c7.038,0 9.531,-2.619 5.178,-5.441c-1.618,-1.049 -2.101,-1.65 -6.002,-7.457c-2.569,-3.823 -2.482,-4.267 1.186,-6.062c1.698,-0.83 2.797,-1.702 2.792,-2.215c-0.009,-0.987 -0.81,-2.383 -1.398,-2.439c-0.224,-0.022 -1.507,-0.222 -2.851,-0.445c-1.547,-0.257 -3.412,-0.173 -5.09,0.229l-2.648,0.635l0.169,2.08c0.143,1.774 -0.046,2.24 -1.282,3.168c-2.139,1.605 -2.419,0.7 -2.428,-7.831l-0.008,-7.383l-1.684,0.013c-0.926,0.007 -3.433,0.618 -5.57,1.357m-46.132,4.295c1.797,3.36 -0.15,9.023 -2.759,8.022c-0.875,-0.336 -1.313,-7.87 -0.505,-8.678c0.716,-0.716 2.748,-0.307 3.264,0.656m22.717,3.905c-4.553,1.254 -7.558,5.43 -5.602,7.786c1.168,1.408 2.716,0.857 5.227,-1.86c2.973,-3.217 4.153,-3.242 4.815,-0.105c0.663,3.142 0.327,3.54 -3.528,4.179c-4.466,0.74 -6.892,2.264 -8.157,5.124c-2.549,5.763 5.253,11.601 10.533,7.881c1.738,-1.224 2.293,-1.215 3.923,0.067c2.211,1.74 5.111,1.203 7.899,-1.462c1.684,-1.609 2.186,-4.237 0.81,-4.237c-1.335,0 -1.832,-1.88 -1.832,-6.927c0,-9.72 -4.529,-13.078 -14.088,-10.446m57.203,0.367c-11.042,5.354 -8.319,22.344 3.781,23.593c4.803,0.496 10.832,-3.055 10.517,-6.194c-0.173,-1.73 -1.729,-3.141 -2.376,-2.155c-1.984,3.027 -9.441,1.518 -9.441,-1.911c0,-0.914 0.433,-0.99 5.619,-0.99c6.467,0 7.644,-0.616 7.424,-3.883c-0.49,-7.287 -8.708,-11.765 -15.524,-8.46m22.854,-0.139c-5.592,1.6 -7.932,4.594 -4.699,6.012c2.193,0.962 1.913,10.249 -0.373,12.368c-1.571,1.456 -1.248,3.571 0.681,4.457c3.63,1.67 13.559,0.387 14.422,-1.863c0.323,-0.84 -1.699,-3.311 -2.709,-3.311c-0.765,0 -1.273,-2.369 -1.262,-5.894c0.012,-3.973 0.519,-4.444 2.96,-2.752c4.948,3.428 10.036,-1.807 7.16,-7.369c-1.65,-3.192 -6.152,-3.016 -8.341,0.325c-0.953,1.455 -1.764,0.897 -1.779,-1.223c-0.014,-1.937 -1.339,-2.101 -6.06,-0.75m22.177,-0.43c-4.626,0.908 -6.021,3.111 -3.23,5.098c1.041,0.741 2.243,2.764 3.946,6.642c4.839,11.014 5.525,12.995 4.903,14.157c-0.816,1.526 -2.084,1.041 -2.765,-1.057c-1.442,-4.442 -7.716,-2.686 -7.144,2c0.535,4.369 5.862,6.493 10.704,4.267c3.987,-1.833 5.414,-4.206 9.074,-15.086c3.106,-9.235 3.805,-10.682 5.61,-11.616c2.761,-1.428 2.655,-3.512 -0.227,-4.463c-4.389,-1.449 -9.351,0.991 -7.449,3.662c1.54,2.163 0.714,6.717 -1.219,6.717c-1.365,0 -3.037,-4.579 -2.357,-6.459c1.353,-3.741 -2.59,-5.288 -9.846,-3.862m125.326,0.489c-4.716,1.674 -7.436,5.431 -5.404,7.463c1.448,1.448 3.426,0.631 5.633,-2.325c2.21,-2.96 4.211,-2.596 4.44,0.808c0.216,3.225 0.178,3.271 -2.985,3.657c-7.116,0.867 -10.781,5.544 -8.384,10.697c1.294,2.783 8.853,4.772 10.223,2.69c1.006,-1.529 2.383,-1.677 3.881,-0.417c2.316,1.949 6.291,1.109 8.503,-1.796c0.918,-1.206 0.855,-3.691 -0.094,-3.691c-0.986,0 -1.204,-1.151 -1.46,-7.674c-0.357,-9.134 -5.548,-12.537 -14.353,-9.412m45.677,-0.525c-0.667,0.283 -1.483,0.36 -1.813,0.171c-0.33,-0.188 -0.434,-0.159 -0.232,0.065c0.202,0.224 -0.372,0.906 -1.276,1.516c-9.947,6.703 -4.55,23.651 7.148,22.443c4.637,-0.478 9.045,-3.381 9.045,-5.956c0,-2.415 -1.167,-3.025 -3.285,-1.716c-2.479,1.533 -5.158,1.422 -7.082,-0.293c-3,-2.673 -2.278,-3.282 3.89,-3.282c6.751,0 7.845,-0.681 7.315,-4.551c-0.879,-6.411 -8.042,-10.798 -13.71,-8.397m-209.676,4.464c1.736,1.735 0.814,3.561 -1.797,3.561c-2.753,0 -3.211,-0.894 -1.544,-3.013c1.256,-1.597 2.146,-1.743 3.341,-0.548m214.478,0.151c1.695,1.872 0.895,3.41 -1.774,3.41c-2.749,0 -3.371,-1.299 -1.555,-3.248c1.32,-1.416 2.157,-1.457 3.329,-0.162m-300.107,5.824c2.464,2.846 1.262,8.208 -1.84,8.208c-2.098,0 -2.4,-0.684 -2.411,-5.466c-0.01,-4.395 1.806,-5.566 4.251,-2.742m26.723,5.104c0.201,2.382 -1.012,4.11 -2.324,3.311c-1.289,-0.784 -1.484,-3.175 -0.36,-4.417c1.353,-1.495 2.505,-1.021 2.684,1.106m227.545,-1.083c0.685,1.279 0.138,4.032 -0.878,4.422c-1.948,0.748 -3.063,-2.932 -1.394,-4.602c1.072,-1.071 1.626,-1.027 2.272,0.18" id="path1"/>
   <path fill-rule="evenodd" fill="#ead5aa" d="m238.206994,89.103002l-5.95,6.088l6.088,-5.95c5.655,-5.527 6.323,-6.226 5.95,-6.226c-0.076,0 -2.816,2.74 -6.088,6.088m5.416,-0.259l-1.522,1.684l1.684,-1.522c1.57,-1.418 1.922,-1.846 1.522,-1.846c-0.089,0 -0.847,0.758 -1.684,1.684m-15.881,10.906c-2.198,2.337 -4.763,5.065 -5.7,6.063c-0.936,0.997 0.703,-0.518 3.643,-3.368c4.448,-4.311 6.922,-7.091 6.201,-6.97c-0.081,0.014 -1.946,1.937 -4.144,4.275m-12.144,-0.8c-0.059,1.471 0.026,1.69 0.352,0.904c0.553,-1.331 0.615,-2.85 0.115,-2.847c-0.214,0.001 -0.424,0.876 -0.467,1.943m-8.411,2.251c-0.318,0.912 -0.562,1.914 -0.541,2.228c0.02,0.314 0.37,-0.342 0.779,-1.457c0.408,-1.115 0.652,-2.118 0.541,-2.228c-0.11,-0.111 -0.461,0.545 -0.779,1.457m21.684,2.928l-2.832,2.979l2.979,-2.832c1.639,-1.557 2.98,-2.898 2.98,-2.979c0,-0.385 -0.496,0.064 -3.127,2.832m-15.748,2.757c-0.446,1.502 -0.718,2.823 -0.603,2.938c0.114,0.114 0.568,-1.025 1.01,-2.531c0.441,-1.506 0.713,-2.827 0.603,-2.937c-0.11,-0.11 -0.564,1.029 -1.01,2.53m18.081,7.865l-3.092,3.238l3.238,-3.093c3.008,-2.872 3.475,-3.384 3.093,-3.384c-0.081,0 -1.538,1.458 -3.239,3.239m-20.346,-0.803c-0.767,2.498 -0.396,2.869 0.414,0.414c0.342,-1.035 0.521,-1.984 0.398,-2.107c-0.123,-0.123 -0.489,0.639 -0.812,1.693m15.93,0.026l-1.785,1.943l1.943,-1.786c1.068,-0.982 1.943,-1.856 1.943,-1.943c0,-0.396 -0.439,-0.023 -2.101,1.786m-13.695,1.158c-1.855,1.883 -2.671,2.41 -3.009,1.943c-0.323,-0.446 -0.379,-0.375 -0.185,0.233c0.153,0.48 0,0.973 -0.34,1.095c-0.34,0.122 -0.489,0.364 -0.33,0.537c0.158,0.174 1.784,-1.193 3.612,-3.038c1.828,-1.844 3.205,-3.353 3.06,-3.353c-0.145,0 -1.409,1.162 -2.808,2.583m3.085,2.209l-3.092,3.239l3.238,-3.093c3.008,-2.873 3.475,-3.384 3.093,-3.384c-0.081,0 -1.538,1.457 -3.239,3.238m-14.172,-0.596c-0.318,0.912 -0.562,1.914 -0.542,2.228c0.02,0.314 0.371,-0.342 0.779,-1.457c0.409,-1.115 0.653,-2.118 0.542,-2.228c-0.111,-0.111 -0.461,0.545 -0.779,1.457m13.12,9.405l-1.522,1.684l1.684,-1.522c1.569,-1.419 1.922,-1.846 1.522,-1.846c-0.09,0 -0.847,0.758 -1.684,1.684m2.609,2.59l-3.613,3.757l3.756,-3.613c3.489,-3.356 3.994,-3.9 3.613,-3.9c-0.078,0 -1.769,1.69 -3.756,3.756m7.252,3.627l-3.093,3.239l3.238,-3.093c3.008,-2.873 3.476,-3.384 3.093,-3.384c-0.08,0 -1.538,1.457 -3.238,3.238m1.57,3.498c-2.266,2.279 -3.941,4.145 -3.721,4.145c0.22,0 0.914,-0.544 1.543,-1.21c0.628,-0.665 2.416,-2.53 3.974,-4.145c1.558,-1.614 2.718,-2.935 2.578,-2.935c-0.139,0 -2.107,1.865 -4.374,4.145m-49.127,-0.648c-0.124,0.214 -0.037,0.855 0.192,1.425c0.364,0.905 0.421,0.855 0.453,-0.389c0.036,-1.405 -0.206,-1.795 -0.645,-1.036m115.326,2.056c0.788,0.119 1.953,0.116 2.591,-0.007c0.637,-0.123 -0.007,-0.221 -1.432,-0.217c-1.425,0.004 -1.947,0.105 -1.159,0.224m8.801,0.503c0.499,0.131 1.315,0.131 1.814,0c0.498,-0.13 0.09,-0.237 -0.907,-0.237c-0.997,0 -1.406,0.107 -0.907,0.237m-97.567,5.213l-1.785,1.943l1.943,-1.786c1.069,-0.982 1.943,-1.856 1.943,-1.943c0,-0.395 -0.439,-0.022 -2.101,1.786m11.419,4.558c-3.273,3.291 -5.601,5.819 -5.173,5.618c0.8,-0.376 11.796,-11.601 11.364,-11.601c-0.132,0 -2.919,2.692 -6.191,5.983m9.578,-2.226l-3.093,3.238l3.239,-3.093l3.239,-3.094l1.152,1.151l1.151,1.151l-3.87,4.015c-2.128,2.208 -6.319,6.591 -9.313,9.739c-3.362,3.535 -2.69,2.941 1.758,-1.555c3.96,-4.003 8.261,-8.381 9.556,-9.729l2.355,-2.45l-1.226,-1.306c-1.606,-1.709 -1.39,-1.793 -4.948,1.933m-12.962,0.518l-2.048,2.202l2.202,-2.048c2.048,-1.905 2.44,-2.356 2.048,-2.356c-0.085,0 -1.075,0.991 -2.202,2.202m6.242,6.501c-0.285,0.218 -1.917,1.905 -3.626,3.749l-3.108,3.351l3.756,-3.613c2.065,-1.987 3.755,-3.678 3.755,-3.757c0,-0.231 -0.225,-0.153 -0.777,0.27m-15.526,8.378c-3.402,3.41 -6.079,6.266 -5.951,6.347c0.128,0.081 3.021,-2.709 6.428,-6.2c3.407,-3.491 6.085,-6.347 5.95,-6.347c-0.134,0 -3.026,2.79 -6.427,6.2m-3.404,-1.667l-2.832,2.98l2.98,-2.833c2.767,-2.631 3.216,-3.126 2.832,-3.126c-0.081,0 -1.422,1.341 -2.98,2.979m83.558,1.166c0,0.997 0.107,1.405 0.237,0.907c0.13,-0.499 0.13,-1.315 0,-1.814c-0.13,-0.498 -0.237,-0.09 -0.237,0.907m-83.29,11.529l-5.69,5.829l5.829,-5.691c3.206,-3.13 5.829,-5.753 5.829,-5.829c0,-0.374 -0.682,0.276 -5.968,5.691m5.158,0l-1.522,1.683l1.684,-1.521c1.57,-1.419 1.922,-1.846 1.522,-1.846c-0.089,0 -0.847,0.757 -1.684,1.684m-14.935,5.375c-0.46,1.348 -0.819,2.702 -0.798,3.007c0.021,0.305 0.487,-0.708 1.035,-2.253c0.548,-1.544 0.907,-2.898 0.798,-3.007c-0.11,-0.11 -0.576,0.904 -1.035,2.253m0.477,4.321c-0.809,0.845 -1.63,1.438 -1.824,1.318c-0.194,-0.12 -0.352,0.131 -0.352,0.558c0,0.485 0.742,0.051 1.986,-1.165c1.092,-1.066 1.986,-2.008 1.986,-2.093c0,-0.377 -0.422,-0.052 -1.796,1.382m51.139,25.407c0,0.998 0.107,1.406 0.237,0.907c0.131,-0.499 0.131,-1.315 0,-1.814c-0.13,-0.498 -0.237,-0.09 -0.237,0.907m-64.783,10.207c-0.767,2.499 -0.396,2.87 0.414,0.415c0.342,-1.036 0.521,-1.984 0.398,-2.107c-0.123,-0.123 -0.489,0.638 -0.812,1.692m-8.795,2.876c-0.882,2.44 -0.76,3.1 0.175,0.946c0.424,-0.976 0.701,-1.983 0.615,-2.239c-0.085,-0.255 -0.44,0.327 -0.79,1.293m5.878,5.866c-0.19,0.759 -0.246,1.481 -0.124,1.603c0.122,0.122 0.378,-0.399 0.569,-1.159c0.19,-0.759 0.246,-1.48 0.124,-1.602c-0.122,-0.123 -0.378,0.399 -0.569,1.158m-8.482,2.139c-0.767,2.498 -0.396,2.87 0.414,0.415c0.342,-1.036 0.521,-1.984 0.398,-2.107c-0.123,-0.123 -0.489,0.638 -0.812,1.692m5.966,5.448c-0.472,1.476 -0.772,2.769 -0.667,2.874c0.105,0.105 0.588,-1.005 1.074,-2.467c0.485,-1.462 0.785,-2.755 0.667,-2.874c-0.119,-0.118 -0.602,0.992 -1.074,2.467m-8.557,2.324c-0.767,2.498 -0.395,2.87 0.415,0.415c0.341,-1.036 0.52,-1.984 0.397,-2.107c-0.123,-0.123 -0.488,0.638 -0.812,1.692m3.571,12.638c-0.351,1.17 -0.542,2.222 -0.426,2.338c0.117,0.117 0.499,-0.745 0.85,-1.914c0.35,-1.17 0.541,-2.222 0.425,-2.338c-0.117,-0.117 -0.499,0.745 -0.849,1.914m-8.809,3.109c-0.35,1.169 -0.541,2.222 -0.425,2.338c0.117,0.117 0.499,-0.745 0.849,-1.914c0.351,-1.17 0.542,-2.222 0.425,-2.339c-0.116,-0.116 -0.498,0.745 -0.849,1.915m5.949,5.43c-0.191,0.759 -0.247,1.481 -0.125,1.603c0.122,0.122 0.378,-0.399 0.569,-1.159c0.19,-0.759 0.246,-1.48 0.124,-1.602c-0.122,-0.123 -0.378,0.399 -0.568,1.158m-8.794,3.124c-0.501,1.589 -0.817,2.982 -0.703,3.096c0.114,0.114 0.617,-1.093 1.118,-2.682c0.501,-1.589 0.817,-2.982 0.703,-3.096c-0.114,-0.114 -0.617,1.093 -1.118,2.682m6.425,4.093c-0.342,1.036 -0.498,2.006 -0.348,2.156c0.15,0.15 0.516,-0.61 0.814,-1.69c0.704,-2.548 0.341,-2.911 -0.466,-0.466m120.596,-0.93c0.641,0.124 1.69,0.124 2.332,0c0.641,-0.123 0.116,-0.224 -1.166,-0.224c-1.283,0 -1.807,0.101 -1.166,0.224m-230.564,0.519c0.645,0.124 1.577,0.12 2.073,-0.01c0.495,-0.13 -0.032,-0.231 -1.172,-0.225c-1.14,0.005 -1.545,0.111 -0.901,0.235m275.93,2.003l-1.454,1.333l1.684,-1.171c0.926,-0.644 1.684,-1.244 1.684,-1.333c0,-0.409 -0.573,-0.058 -1.914,1.171m-171.402,1.536c0.855,0.391 1.904,0.704 2.331,0.695c0.428,-0.009 -0.039,-0.33 -1.036,-0.714c-2.366,-0.911 -3.296,-0.898 -1.295,0.019m169.485,1.059c-0.435,1.136 -0.38,5.011 0.082,5.738c0.21,0.329 0.381,-1.012 0.381,-2.98c0,-3.913 -0.006,-3.948 -0.463,-2.758m-272.672,4.88c0,2.423 0.089,3.414 0.198,2.202c0.109,-1.211 0.109,-3.193 0,-4.404c-0.109,-1.211 -0.198,-0.22 -0.198,2.202m14.447,-2.072c0,0.997 0.106,1.405 0.237,0.907c0.13,-0.499 0.13,-1.315 0,-1.814c-0.131,-0.499 -0.237,-0.091 -0.237,0.907m218.273,-0.433c0.57,0.314 1.63,1.065 2.356,1.668c0.726,0.603 0.554,0.339 -0.381,-0.587c-0.935,-0.927 -1.995,-1.677 -2.356,-1.669c-0.36,0.009 -0.189,0.273 0.381,0.588m-6.275,1.226c-0.473,0.722 -0.766,1.406 -0.65,1.521c0.115,0.115 0.602,-0.475 1.082,-1.311c1.069,-1.863 0.752,-2.017 -0.432,-0.21m-105.958,1.484c1.478,0.819 2.589,2.674 2.67,4.459c0.033,0.712 0.178,1.002 0.322,0.644c0.144,-0.358 0.482,-0.516 0.749,-0.35c0.268,0.165 0,-0.591 -0.595,-1.681c-1.167,-2.135 -2.845,-3.806 -3.794,-3.776c-0.324,0.01 -0.033,0.327 0.648,0.704m-27.879,-0.037c0.119,0.092 1.032,0.695 2.03,1.338l1.813,1.171l-1.554,-1.336c-0.855,-0.734 -1.769,-1.337 -2.03,-1.338c-0.261,-0.001 -0.378,0.073 -0.259,0.165m32.244,0.739c-0.544,0.499 -0.732,0.741 -0.418,0.539c0.314,-0.202 1.141,-0.595 1.838,-0.874c0.801,-0.32 0.955,-0.518 0.418,-0.539c-0.467,-0.018 -1.294,0.375 -1.838,0.874m138.956,-0.302c0.57,0.315 1.514,0.949 2.098,1.409c0.584,0.46 0.405,0.195 -0.397,-0.589c-0.802,-0.783 -1.746,-1.418 -2.097,-1.409c-0.352,0.009 -0.173,0.274 0.396,0.589m-161.17,0.719c-0.99,0.793 -0.989,0.798 0.031,0.329c0.57,-0.262 1.386,-0.606 1.813,-0.764c0.671,-0.249 0.667,-0.294 -0.03,-0.33c-0.445,-0.022 -1.261,0.322 -1.814,0.765m35.638,2.33c-0.438,1.402 -0.489,2.391 -0.155,2.979c0.447,0.785 0.496,0.769 0.455,-0.156c-0.025,-0.57 0.13,-1.911 0.345,-2.979c0.515,-2.559 0.177,-2.477 -0.645,0.156m87.062,-0.286c0.006,1.14 0.112,1.545 0.236,0.901c0.124,-0.645 0.119,-1.577 -0.011,-2.073c-0.129,-0.495 -0.231,0.032 -0.225,1.172m23.45,-0.264c-0.816,0.852 -1.385,1.632 -1.263,1.733c0.122,0.101 0.885,-0.596 1.697,-1.549c1.833,-2.152 1.561,-2.267 -0.434,-0.184m-221.796,1.666l-1.007,1.189l1.077,-0.907c1.2,-1.011 2.584,-1.185 2.986,-0.375c0.145,0.292 0.204,0.233 0.132,-0.13c-0.229,-1.151 -2.136,-1.017 -3.188,0.223m228.038,-0.673c-0.16,0.259 0.211,0.339 0.824,0.179c0.735,-0.193 1.353,0.034 1.814,0.665c0.385,0.526 0.7,0.726 0.7,0.443c0,-1.365 -2.657,-2.389 -3.338,-1.287m32.013,-0.109l1.99,0.226l-0.177,2.531c-0.097,1.393 0.013,2.342 0.245,2.109c1.472,-1.475 0.1,-4.967 -1.976,-5.029l-2.073,-0.062l1.991,0.225m15.711,0.157c0.617,0.249 1.367,0.875 1.668,1.392c0.301,0.517 0.554,0.685 0.562,0.373c0.022,-0.788 -1.723,-2.29 -2.615,-2.25c-0.405,0.018 -0.232,0.237 0.385,0.485m-160.565,1.514c0.118,0.802 -0.163,2.189 -0.625,3.081c-0.461,0.893 -0.723,1.623 -0.58,1.623c1.097,0 2.371,-5.31 1.416,-5.901c-0.234,-0.144 -0.328,0.395 -0.211,1.197m-74.915,0.579c-0.624,0.581 -1.134,1.205 -1.134,1.386c0,0.181 0.583,-0.219 1.295,-0.888c1.215,-1.141 1.517,-1.554 1.134,-1.554c-0.088,0 -0.671,0.475 -1.295,1.056m-42.743,1.292c-0.8,0.703 -1.248,1.279 -0.997,1.279c0.251,0 1.004,-0.583 1.673,-1.296c1.549,-1.648 1.207,-1.64 -0.676,0.017m5.817,0.371c-0.154,1.114 -0.075,1.749 0.185,1.488c0.25,-0.25 0.371,-1.124 0.269,-1.942c-0.17,-1.37 -0.207,-1.334 -0.454,0.454m-29.972,1.638c-0.378,0.455 -0.538,2.07 -0.424,4.275l0.182,3.544l0.102,-3.731c0.079,-2.935 0.294,-3.843 1.008,-4.259c0.498,-0.29 0.644,-0.535 0.322,-0.544c-0.321,-0.008 -0.857,0.313 -1.19,0.715m112.048,3.156c0.002,1.995 0.096,2.747 0.208,1.672c0.112,-1.075 0.111,-2.707 -0.004,-3.627c-0.114,-0.92 -0.206,-0.04 -0.204,1.955m178.189,-0.778c0,0.998 0.106,1.406 0.237,0.907c0.13,-0.498 0.13,-1.315 0,-1.813c-0.131,-0.499 -0.237,-0.091 -0.237,0.906m-62.875,-0.169c0.656,1.292 3.031,3.286 3.886,3.263c0.318,-0.009 0.112,-0.264 -0.458,-0.568c-0.57,-0.303 -1.703,-1.287 -2.518,-2.186c-0.985,-1.086 -1.29,-1.257 -0.91,-0.509m20.898,0.558c-0.802,0.784 -0.98,1.049 -0.397,0.589c0.584,-0.46 1.528,-1.094 2.098,-1.409c0.57,-0.315 0.748,-0.58 0.397,-0.589c-0.352,-0.009 -1.296,0.625 -2.098,1.409m-146.106,2.202c0,0.998 0.106,1.406 0.237,0.907c0.13,-0.499 0.13,-1.315 0,-1.814c-0.131,-0.498 -0.237,-0.09 -0.237,0.907m-45.517,0.747c-0.158,0.411 -0.178,1.169 -0.044,1.684c0.152,0.587 0.265,0.382 0.303,-0.551c0.054,-1.341 0.15,-1.418 0.967,-0.777c0.821,0.644 0.84,0.626 0.195,-0.196c-0.863,-1.101 -1.052,-1.122 -1.421,-0.16m-29.655,1.133c-0.048,1 0.269,1.892 0.829,2.331c0.789,0.619 0.828,0.611 0.305,-0.066c-0.331,-0.427 -0.704,-1.476 -0.829,-2.331l-0.228,-1.555l-0.077,1.621m20.524,7.813c0.644,0.124 1.577,0.119 2.072,-0.01c0.496,-0.13 -0.032,-0.231 -1.171,-0.226c-1.14,0.006 -1.546,0.112 -0.901,0.236m58.557,0.014c1.218,0.109 3.084,0.108 4.145,-0.004c1.061,-0.111 0.064,-0.201 -2.216,-0.199c-2.28,0.002 -3.148,0.093 -1.929,0.203m171.748,-0.003c1.068,0.112 2.817,0.112 3.886,0c1.068,-0.112 0.194,-0.203 -1.943,-0.203c-2.138,0 -3.012,0.091 -1.943,0.203" id="path2"/>
   <path fill-rule="evenodd" fill="#738040" d="m185.473994,14.156002c-5.787,0.754 -7.816,3.205 -4.305,5.202c1.166,0.664 1.621,1.432 2.06,3.48c1.171,5.459 0.179,5.447 -8.188,-0.1c-8.738,-5.792 -8.532,-5.699 -11.912,-5.392c-6.158,0.558 -9.314,3.699 -5.169,5.144c3.488,1.216 6.319,17.979 3.571,21.147c-2.23,2.572 -0.129,4.464 4.435,3.992c5.689,-0.587 8.893,-3.53 5.575,-5.12c-1.922,-0.921 -2.896,-3.097 -2.961,-6.614c-0.082,-4.407 0.776,-4.221 10.249,2.22c9.965,6.775 9.896,6.738 11.2,6.04c1.371,-0.734 1.371,-4.269 0,-12.954c-1.452,-9.195 -1.396,-12.08 0.259,-13.164c3.449,-2.261 0.569,-4.582 -4.814,-3.881m27.341,0.889l-1.242,1.005l1.663,1.894c0.915,1.042 1.663,2.095 1.663,2.339c0,8.345 -2.28,18.559 -4.404,19.731c-4.644,2.561 0.285,5.143 10.222,5.354c5.322,0.113 7.48,-1.759 4.063,-3.526c-3.783,-1.956 -2.421,-10.668 1.449,-9.268c0.803,0.29 1.335,0.855 1.292,1.374c-0.039,0.484 0.12,0.88 0.355,0.88c0.234,0 0.5,0.624 0.59,1.385c0.617,5.216 4.568,-1.301 4.568,-7.536c0,-4.187 -2.464,-5.721 -3.853,-2.398c-0.784,1.878 -2.639,2.444 -4.385,1.339c-0.806,-0.511 -0.508,-4.442 0.477,-6.282c1.201,-2.244 7.527,-0.854 9.975,2.192c3.501,4.357 6.732,0.587 4.032,-4.705l-1.007,-1.975l-6.617,-0.367c-5.703,-0.317 -12.865,-1.259 -16.531,-2.175c-0.624,-0.156 -1.585,0.151 -2.31,0.739m34.597,4.799c-1.112,0.648 -1.165,1.69 -0.129,2.549c2.527,2.097 -2.946,19.935 -6.496,21.173c-3.551,1.237 -0.895,4.165 5.652,6.232c6.049,1.909 8.797,0.819 6.635,-2.633c-0.92,-1.469 0.352,-6.938 1.828,-7.862c2.18,-1.366 3.52,1.36 3.52,7.158c0,6.952 1.706,9.083 7.952,9.939c3.635,0.499 5.908,-1.609 3.707,-3.437c-0.57,-0.472 -0.778,-1.726 -0.778,-4.687c0,-3.639 -0.14,-4.208 -1.404,-5.711c-1.986,-2.359 -2.031,-3.437 -0.163,-3.848c2.626,-0.576 4.676,-3.467 4.676,-6.593c0,-4.109 -3.184,-6.979 -9.6,-8.654c-2.557,-0.667 -6.5,-1.882 -8.763,-2.699c-4.471,-1.615 -5.265,-1.726 -6.637,-0.927m-105.311,3.018c-1.275,0.796 -11.716,4.62 -18.097,6.628c-2.788,0.877 -3.236,3.784 -0.584,3.784c3.357,0 9.958,18.597 7.693,21.672c-2.635,3.577 -0.688,3.469 11.765,-0.655c5.557,-1.84 10.742,-3.478 11.521,-3.64c2.26,-0.469 3.067,-6.529 1.241,-9.316c-1.352,-2.064 -2.514,-1.501 -3.547,1.715c-1.142,3.557 -1.647,4.128 -4.955,5.593c-4.762,2.109 -5.967,1.547 -7.669,-3.577c-1.283,-3.863 2.087,-6.002 4.251,-2.699c1.635,2.495 3.062,1.535 2.943,-1.978c-0.215,-6.312 -5.598,-12.168 -5.598,-6.089c0,4.921 -3.933,4.791 -5.592,-0.186c-1.555,-4.666 5.046,-8.756 9.311,-5.769c1.53,1.072 3.941,1.959 3.534,1.301c-0.176,-0.285 -0.072,-0.517 0.229,-0.517c0.724,0 0.703,-2.36 -0.034,-3.791c-1.76,-3.418 -3.701,-4.167 -6.412,-2.476m118.416,4.206c3.193,1.709 1.565,8.292 -2.045,8.271c-2.663,-0.016 -2.956,-0.624 -1.912,-3.974c1.315,-4.226 2.232,-5.22 3.957,-4.297m25.237,5.743c-1.138,0.646 -1.161,1.914 -0.056,3.135c2.043,2.258 -7.107,19.168 -10.556,19.508c-5.553,0.548 -3.766,2.186 10.742,9.85c2.422,1.28 5.385,3.023 6.584,3.873c2.609,1.851 4.043,1.52 6.977,-1.609c1.446,-1.543 4.037,-5.938 2.744,-4.655c-0.201,0.2 -0.692,0.038 -1.09,-0.36c-0.619,-0.619 -1.093,-0.532 -3.284,0.605c-3.168,1.643 -5.962,1.386 -9.532,-0.879c-2.831,-1.795 -2.882,-2.172 -0.838,-6.222c2.335,-4.624 5.174,-4.274 5.174,0.637c0,4.376 3.347,2.674 6.049,-3.077c1.552,-3.302 1.442,-5.282 -0.33,-5.933c-0.702,-0.258 -1.108,-0.3 -0.902,-0.094c0.595,0.595 -1.773,2.782 -3.013,2.782c-3.325,0 -2.794,-6.373 0.686,-8.235c2.307,-1.235 8.909,3.951 8.909,6.999c0,2.024 1.847,2.57 3.319,0.982c2.294,-2.476 2.165,-7.518 -0.192,-7.518c-0.993,0 -4.443,-1.699 -15.562,-7.663c-3.817,-2.047 -5.126,-2.524 -5.829,-2.126m-176.031,2.789c-0.353,0.424 -0.884,0.621 -1.18,0.438c-0.297,-0.183 -0.399,-0.106 -0.228,0.172c0.172,0.277 -1.016,1.285 -2.64,2.239c-1.623,0.953 -4.008,2.385 -5.299,3.182c-1.291,0.797 -3.903,2.154 -5.804,3.017c-3.893,1.765 -4.477,2.935 -3.828,7.669c0.805,5.877 5.155,5.892 6.083,0.021c0.848,-5.363 2.106,-4.782 6.495,3c3.854,6.833 4.766,9.56 3.801,11.363c-0.368,0.689 -0.865,1.132 -1.103,0.985c-0.238,-0.147 -0.236,0.269 0.004,0.924c0.671,1.827 3.13,1.813 7.091,-0.041c1.836,-0.859 3.339,-1.413 3.339,-1.231c0,0.182 0.291,-0.018 0.647,-0.445c0.356,-0.427 1.538,-1.428 2.626,-2.225c3.791,-2.776 3.709,-5.487 -0.165,-5.487c-2.361,0 -2.362,-0.001 -6.785,-7.824c-5.076,-8.976 -5.11,-10.729 -0.165,-8.327c4.016,1.951 6.045,1.078 5.833,-2.511c-0.195,-3.311 -6.913,-7.1 -8.722,-4.919m206.892,16.136c-0.179,0.466 -0.052,1.283 0.281,1.816c1.258,2.016 -8.08,15.74 -9.931,14.596c-0.284,-0.176 -0.363,-0.071 -0.176,0.232c0.61,0.986 -2.734,3.301 -4.523,3.13c-3.718,-0.353 -2.399,1.65 5.223,7.931c9.115,7.511 11.609,9.803 11.269,10.354c-0.151,0.244 0.642,0.12 1.761,-0.275c4.755,-1.678 7.013,-3.542 6.727,-5.556c-0.183,-1.296 -0.731,-1.363 -5.414,-0.657c-3.018,0.455 -9.005,-3.097 -9.005,-5.343c0,-1.115 2.457,-4.872 3.888,-5.945c2.378,-1.783 4.873,1.58 3.076,4.146c-0.444,0.634 -0.663,1.385 -0.487,1.67c0.989,1.6 5.034,-0.826 7.446,-4.468c2.692,-4.064 1.781,-6.67 -1.512,-4.325c-1.762,1.255 -3.643,0.809 -4.669,-1.108c-0.694,-1.297 3.28,-6.163 5.035,-6.163c2.496,0 6.421,4.479 6.825,7.786c0.571,4.681 4.604,3.277 5.583,-1.943c0.387,-2.065 0.491,-1.937 -3.779,-4.699c-1.193,-0.771 -5.078,-3.793 -8.633,-6.714c-6.358,-5.224 -8.32,-6.199 -8.985,-4.465m-238.578,3.95c-5.317,4.334 -6.238,7.314 -2.087,6.757c2.194,-0.294 7.48,4.565 11.654,10.713c3.271,4.816 -2.99,11.507 -8.582,9.171c-3.44,-1.437 -10.293,-10.445 -10.12,-13.301c0.27,-4.435 -3.86,-3.048 -9.867,3.312c-3.072,3.253 -3.465,5.12 -1.131,5.382c3.061,0.342 3.764,0.868 7.948,5.946c5.803,7.042 6.994,7.9 10.964,7.892c3.376,-0.006 6.067,-0.341 6.477,-0.805c0.142,-0.162 1.33,-1.022 2.64,-1.913c4.959,-3.373 8.312,-8.475 8.35,-12.704c0.032,-3.545 -0.551,-4.595 -6.526,-11.742c-4.794,-5.734 -4.951,-6.004 -4.839,-8.29c0.162,-3.309 -1.193,-3.425 -4.881,-0.418m275.55,29.229c-0.19,0.19 -0.346,1.134 -0.346,2.097c0,3.53 -16.062,14.518 -18.394,12.583c-2.632,-2.184 -2.975,1.391 -0.487,5.084c2.602,3.865 6.155,5.093 5.908,2.043c-0.172,-2.115 -0.011,-2.332 3.517,-4.741c5.085,-3.472 6.153,-2.922 3.419,1.759c-6.738,11.539 -6.85,11.118 2.451,9.249c5.738,-1.152 7.409,-1.055 7.122,0.414c-0.297,1.52 -5.645,4.862 -7.681,4.8c-0.997,-0.031 -2.047,-0.005 -2.332,0.056c-0.285,0.062 -0.68,0.088 -0.878,0.06c-0.755,-0.109 1.399,4.579 3.425,7.453c3.545,5.029 6.521,6.286 6.521,2.754c0,-3.194 14.66,-13.981 17.897,-13.169c4.157,1.044 3.531,-4.279 -0.996,-8.469c-1.595,-1.476 -2.683,-1.541 -10.08,-0.6c-7.221,0.918 -7.193,0.969 -3.546,-6.558c3.235,-6.677 3.389,-7.428 1.989,-9.723c-2.485,-4.075 -6.085,-6.516 -7.509,-5.092m-309.672,5.166c-0.428,0.128 -1.456,1.145 -2.286,2.261c-0.83,1.117 -1.762,1.885 -2.072,1.709c-0.311,-0.177 -0.402,-0.14 -0.203,0.081c0.2,0.221 -0.442,1.596 -1.424,3.055c-2.99,4.44 -2.24,8.161 1.164,5.776c1.174,-0.822 2.976,-0.528 2.406,0.394c-0.196,0.316 -0.087,0.39 0.26,0.175c0.584,-0.361 11.742,7.764 13.825,10.067c0.672,0.742 1.024,1.868 1.024,3.27c0,3.707 1.269,3.101 5.996,-2.863c2.329,-2.939 4.457,-5.279 4.728,-5.201c0.271,0.078 0.359,-0.074 0.196,-0.337c-0.163,-0.264 1.103,-2.024 2.813,-3.912l3.11,-3.431l-0.765,-1.831c-1.609,-3.85 -3.689,-5.916 -5.957,-5.916c-1.637,0 -1.849,1.401 -0.558,3.697c1.291,2.297 1.151,3.834 -0.566,6.246c-2.403,3.375 -2.883,3.247 -10.678,-2.831c-7.88,-6.144 -8.012,-6.288 -7.814,-8.549c0.174,-1.994 -0.818,-2.57 -3.199,-1.86m-16.581,24.54c-0.57,0.57 -1.036,1.481 -1.036,2.024c0,0.543 -0.833,1.984 -1.851,3.202c-6.769,8.102 -5.178,21.485 2.955,24.854c0.818,0.339 1.487,0.771 1.487,0.961c0,0.19 0.758,0.402 1.684,0.472c0.926,0.069 1.748,0.311 1.826,0.538c0.234,0.673 6.869,-0.432 8.941,-1.489c9.286,-4.738 12.848,-17.244 6.713,-23.574c-1.058,-1.092 -1.482,-2.01 -1.403,-3.038c0.498,-6.427 -7.325,0.748 -9.006,8.26c-0.915,4.088 1.438,6.174 3.469,3.075c2.005,-3.061 5.555,0.161 3.796,3.446c-2.216,4.141 -12.71,3.63 -17.033,-0.831c-4.084,-4.214 -2.319,-8.996 4.125,-11.177c4.503,-1.524 5.548,-2.958 3.941,-5.41c-1.635,-2.497 -6.658,-3.262 -8.608,-1.313m73.576,0.001c-11.785,1.368 -21.303,4.828 -30.492,11.086c-2.275,1.549 -4.292,2.661 -4.482,2.471c-0.191,-0.19 -0.29,-0.112 -0.222,0.173c0.068,0.285 -1.969,2.629 -4.528,5.209c-4.513,4.549 -11.036,13.564 -12.17,16.819c-0.297,0.85 -0.723,1.432 -0.948,1.293c-0.225,-0.139 -0.377,0.036 -0.338,0.389c0.039,0.353 -0.787,2.857 -1.836,5.564c-7.026,18.144 -5.762,39.923 3.357,57.839c0.744,1.461 1.208,2.802 1.031,2.979c-0.177,0.177 -0.073,0.322 0.233,0.322c0.305,0 1.146,1.009 1.869,2.242c3,5.119 9.933,12.799 14.945,16.554c1.336,1.001 2.268,1.999 2.072,2.217c-0.196,0.218 -0.093,0.246 0.23,0.062c0.323,-0.184 1.139,0.097 1.813,0.625c4.038,3.161 18.653,9.388 22.033,9.388c0.702,0 1.168,0.175 1.036,0.389c-0.132,0.214 0.495,0.402 1.394,0.419c0.899,0.017 4.199,0.287 7.334,0.6c28.715,2.865 53.448,-13.124 60.685,-39.231c1.657,-5.977 2.384,-6.857 6.338,-7.673l3.05,-0.631l1.051,-2.972c3.24,-9.165 3.237,-11.146 -0.02,-13.898c-10.099,-8.534 -49.48,-8.51 -60.687,0.038c-4.866,3.711 -5.279,11.728 -0.798,15.498c0.805,0.678 1.371,1.325 1.258,1.438c-0.246,0.246 0.231,0.304 6.101,0.739c4.894,0.364 7.051,1.725 7.159,4.521c0.417,10.763 -2.726,15.124 -10.889,15.108c-19.992,-0.039 -36.478,-35.908 -29.908,-65.072c1.504,-6.677 8.42,-17.876 10.315,-16.705c0.3,0.186 0.399,0.099 0.218,-0.193c-1.352,-2.188 10.987,-5.348 16.878,-4.321c5.705,0.993 15.603,6.757 14.545,8.47c-0.18,0.29 -0.082,0.376 0.217,0.191c0.304,-0.187 2.791,2.56 5.621,6.207c5.604,7.223 7.83,9.138 12.046,10.364c7.741,2.25 15.329,-3.029 16.486,-11.471c0.176,-1.283 0.463,-2.332 0.638,-2.332c0.39,0.001 0.428,-7.929 0.039,-8.291c-0.153,-0.142 -0.535,-1.805 -0.849,-3.694c-0.63,-3.786 -2.597,-8.61 -5.176,-12.694c-0.924,-1.462 -1.515,-2.822 -1.315,-3.023c0.201,-0.2 0.132,-0.297 -0.153,-0.214c-0.285,0.083 -1.334,-0.632 -2.332,-1.588c-3.57,-3.421 -6.352,-3.86 -11.708,-1.844c-4.271,1.608 -8.018,1.675 -11.718,0.212c-7.174,-2.839 -21.152,-4.539 -29.423,-3.579m137.305,1.632c-1.282,0.283 -2.657,0.556 -3.056,0.606c-2.38,0.304 -6.27,5.779 -6.27,8.825c0,2.034 0.632,1.994 2.848,-0.181l2.134,-2.095l1.203,1.281l1.203,1.28l-1.427,1.709c-0.785,0.94 -1.747,1.895 -2.14,2.123c-1.365,0.794 -0.693,1.784 2.294,3.376c7.068,3.767 7.842,7.381 7.847,36.625c0.007,47.689 -1.294,57.038 -8.367,60.114c-8.185,3.561 -9.409,12.272 -2.434,17.325c6.486,4.698 44.945,5.01 59.805,0.485c10.499,-3.198 9.761,-15.73 -1.018,-17.285c-6.37,-0.92 -7.627,-4.553 -7.935,-22.935l-0.228,-13.59l1.565,-1.565c1.459,-1.459 1.821,-1.564 5.361,-1.554c7.256,0.022 10.34,2.656 11.623,9.929c1.366,7.742 1.733,8.926 3.162,10.195c1.712,1.519 5.396,1.354 7.786,-0.348c0.852,-0.607 1.736,-0.936 1.963,-0.73c0.227,0.205 0.273,0.127 0.102,-0.175c-0.171,-0.301 0.255,-1.542 0.945,-2.758c7.078,-12.461 5.486,-49.81 -2.269,-53.213c-0.953,-0.418 -6.896,-1.155 -6.553,-0.812c0.118,0.118 -0.332,0.645 -1,1.171c-1.554,1.221 -3.143,4.611 -4.268,9.101c-1.487,5.933 -4.213,7.442 -11.944,6.614c-2.659,-0.284 -3.744,-0.673 -4.986,-1.782l-1.588,-1.419l0.11,-6.415c0.364,-21.367 2.401,-24.169 16.888,-23.23c16.743,1.086 18.397,1.843 27.283,12.471c5.046,6.037 6.466,6.953 10.134,6.539c8.708,-0.981 10.993,-15.714 4.612,-29.747c-0.67,-1.474 -1.084,-2.815 -0.92,-2.979c0.164,-0.164 0.06,-0.299 -0.233,-0.299c-0.292,0 -1.387,-1.289 -2.433,-2.865c-2.808,-4.229 -4.177,-4.729 -10.83,-3.955c-2.937,0.341 -12.324,0.871 -20.859,1.177c-19.107,0.685 -35.931,0.333 -62.151,-1.303c-1.995,-0.124 -4.676,0.006 -5.959,0.289m141.052,6.746c-0.351,0.35 -0.638,1.231 -0.638,1.958c-0.003,3.506 -19.064,11.201 -21.243,8.575c-1.681,-2.026 -2.909,-0.205 -1.827,2.711c0.676,1.82 1.314,3.357 5.49,13.222c0.875,2.066 1.866,4.805 2.202,6.088c0.716,2.728 2.553,3.518 6.725,2.892c5.119,-0.767 5.989,-3.847 1.277,-4.524c-3.458,-0.497 -4.29,-1.138 -6.052,-4.664c-2.132,-4.266 -2.061,-4.832 0.836,-6.669c5.158,-3.271 9.383,-0.29 4.885,3.448c-2.701,2.244 0.297,3.519 4.663,1.984c6.187,-2.176 8.457,-5.842 3.42,-5.523c-2.526,0.16 -4.421,-1.832 -3.651,-3.838c0.341,-0.888 5.203,-2.889 6.553,-2.697c2.547,0.363 4.849,7.752 3.164,10.157c-2.221,3.172 1.755,4.938 4.77,2.119c2.44,-2.283 2.481,-2.808 0.471,-6.116c-1.014,-1.67 -2.174,-3.935 -2.579,-5.035c-0.919,-2.5 -3.949,-9.61 -5.265,-12.356c-1.048,-2.186 -2.151,-2.783 -3.201,-1.732" id="path3"/>
   <path fill-rule="evenodd" fill="#8b9360" d="m224.872994,16.015002c0.499,0.13 1.315,0.13 1.814,0c0.498,-0.131 0.09,-0.237 -0.907,-0.237c-0.997,0 -1.405,0.106 -0.907,0.237m-35.682,2.98c-0.157,0.411 -0.195,1.169 -0.083,1.684c0.126,0.585 0.304,0.305 0.472,-0.747c0.282,-1.764 0.099,-2.207 -0.389,-0.937m25.31,2.362c0,0.997 0.107,1.405 0.237,0.907c0.131,-0.499 0.131,-1.315 0,-1.814c-0.13,-0.499 -0.237,-0.09 -0.237,0.907m13.395,-0.85c0.61,0.526 3.121,0.84 2.819,0.353c-0.183,-0.297 -0.941,-0.539 -1.684,-0.539c-0.743,0 -1.254,0.083 -1.135,0.186m-38.773,3.7c0.006,1.14 0.112,1.545 0.236,0.9c0.124,-0.644 0.119,-1.577 -0.011,-2.072c-0.129,-0.496 -0.231,0.032 -0.225,1.172m47.691,1.417c0.743,0.683 1.217,0.772 1.967,0.37c1.341,-0.717 1.242,-0.915 -0.31,-0.618c-0.714,0.136 -1.599,0.046 -1.967,-0.202c-0.368,-0.247 -0.229,-0.045 0.31,0.45m31.971,0.04c0,0.089 0.758,0.847 1.684,1.684l1.684,1.522l-1.522,-1.684c-1.418,-1.57 -1.846,-1.922 -1.846,-1.522m-127.584,2.277c0.644,0.124 1.577,0.119 2.072,-0.01c0.495,-0.13 -0.032,-0.232 -1.172,-0.226c-1.14,0.006 -1.545,0.112 -0.9,0.236m-19.739,2.57c-1.295,1.294 0.052,3.281 2.225,3.281c0.512,0 1.327,0.525 1.812,1.166c0.879,1.161 0.879,1.161 0.131,-0.13c-0.43,-0.741 -1.389,-1.411 -2.243,-1.566c-1.221,-0.222 -1.489,-0.529 -1.473,-1.684c0.023,-1.569 0.031,-1.55 -0.452,-1.067m151.091,1.727c0,1.282 0.101,1.807 0.225,1.166c0.123,-0.642 0.123,-1.691 0,-2.332c-0.124,-0.641 -0.225,-0.117 -0.225,1.166m-59.335,-0.259c-0.136,0.712 -0.047,1.295 0.199,1.295c0.245,0 0.446,-0.583 0.446,-1.295c0,-0.713 -0.09,-1.296 -0.199,-1.296c-0.109,0 -0.31,0.583 -0.446,1.296m10.165,1.019c-0.16,0.418 -0.171,1.059 -0.024,1.425c0.146,0.365 0.285,0.159 0.308,-0.458c0.022,-0.618 0.332,-1.24 0.688,-1.384c0.507,-0.205 0.504,-0.27 -0.016,-0.302c-0.365,-0.023 -0.795,0.301 -0.956,0.719m-115.22,3.448c-1.805,1.583 -1.806,1.585 -0.145,0.48c0.918,-0.61 1.806,-1.332 1.974,-1.604c0.5,-0.808 0.085,-0.554 -1.829,1.124m114.649,1.491c0,1.283 0.101,1.807 0.225,1.166c0.123,-0.641 0.123,-1.69 0,-2.332c-0.124,-0.641 -0.225,-0.116 -0.225,1.166m31.455,1.826c-0.36,0.435 -0.506,0.94 -0.323,1.123c0.184,0.183 0.333,0.053 0.333,-0.288c0,-0.342 0.525,-0.832 1.166,-1.09c0.789,-0.317 0.893,-0.479 0.323,-0.502c-0.464,-0.018 -1.139,0.323 -1.499,0.757m-63.082,1.283c0,0.997 0.107,1.405 0.237,0.907c0.13,-0.499 0.13,-1.315 0,-1.814c-0.13,-0.498 -0.237,-0.09 -0.237,0.907m-72.72,0.405c-0.171,1.03 -0.095,1.513 0.192,1.225c0.261,-0.261 0.388,-1.026 0.282,-1.7c-0.163,-1.037 -0.236,-0.964 -0.474,0.475m139.436,4.411l0.256,5.288l0.153,-4.876c0.085,-2.682 -0.031,-5.061 -0.256,-5.287c-0.225,-0.227 -0.294,1.967 -0.153,4.875m-129.492,-4.298c-0.002,0.747 1.46,3.713 1.498,3.039c0.01,-0.181 -0.323,-1.114 -0.739,-2.073c-0.416,-0.958 -0.758,-1.393 -0.759,-0.966m141.025,5.441c0.006,1.139 0.112,1.545 0.236,0.9c0.124,-0.644 0.119,-1.577 -0.011,-2.072c-0.129,-0.496 -0.231,0.032 -0.225,1.172m27.039,1.943l-1.522,1.684l1.653,-1.493c1.027,-0.927 1.969,-1.37 2.488,-1.171c0.486,0.186 0.703,0.106 0.519,-0.192c-0.57,-0.922 -1.59,-0.541 -3.138,1.172m-198.928,0.382c-0.183,0.297 0.031,0.379 0.507,0.196c0.455,-0.174 1.337,0.118 1.97,0.654l1.147,0.97l-0.987,-1.166c-1.047,-1.236 -2.113,-1.5 -2.637,-0.654m-6.938,4.45c-0.137,2.456 3.755,4.282 5.162,2.421c0.584,-0.771 0.578,-0.81 -0.04,-0.259c-1.635,1.458 -4.204,0.282 -4.81,-2.202c-0.244,-1.004 -0.254,-1.003 -0.312,0.04m-15.378,3.976l-1.522,1.684l1.684,-1.522c0.927,-0.837 1.684,-1.595 1.684,-1.684c0,-0.4 -0.427,-0.048 -1.846,1.522m54.826,-0.648c0.118,0.439 0.869,0.813 1.723,0.86c1.305,0.07 1.335,0.045 0.22,-0.182c-0.713,-0.145 -1.488,-0.532 -1.724,-0.86c-0.286,-0.398 -0.359,-0.337 -0.219,0.182m155.889,2.398c-0.033,0.606 0.348,1.422 0.846,1.813c0.789,0.619 0.83,0.61 0.315,-0.066c-0.325,-0.427 -0.706,-1.243 -0.846,-1.813c-0.242,-0.984 -0.258,-0.981 -0.315,0.066m-180.542,0.59c0.163,0.645 0.501,1.3 0.751,1.455c0.71,0.438 0.537,-0.51 -0.295,-1.624c-0.725,-0.97 -0.741,-0.964 -0.456,0.169m223.983,4.396c2.147,2.287 2.613,2.699 2.613,2.31c0,-0.084 -1.108,-1.191 -2.462,-2.462l-2.461,-2.309l2.31,2.461m-21.869,3.3c-1.639,1.594 -2.98,3.041 -2.98,3.215c0,0.175 1.399,-1.067 3.109,-2.759c2.852,-2.821 3.346,-3.38 2.98,-3.361c-0.072,0.003 -1.471,1.31 -3.109,2.905m-241.322,-1.675c0,0.11 0.688,0.301 1.528,0.424c0.839,0.123 1.409,0.033 1.264,-0.2c-0.256,-0.416 -2.792,-0.619 -2.792,-0.224m24.849,2.261c0.962,1.211 1.843,2.202 1.957,2.202c0.367,0 -1.854,-2.916 -2.797,-3.673c-0.501,-0.402 -0.123,0.26 0.84,1.471m241.085,1.425c0.006,1.139 0.112,1.545 0.236,0.9c0.124,-0.644 0.119,-1.577 -0.01,-2.072c-0.13,-0.496 -0.231,0.032 -0.226,1.172m-272.948,1.943l-2.571,2.72l2.72,-2.571c2.528,-2.39 2.958,-2.87 2.571,-2.87c-0.082,0 -1.306,1.224 -2.72,2.721m240.732,0.317c-0.412,0.769 -0.233,1.215 0.884,2.202c1.256,1.108 1.301,1.117 0.434,0.088c-0.567,-0.672 -0.854,-1.586 -0.693,-2.202c0.344,-1.316 0.053,-1.357 -0.625,-0.088m-242.526,5.971c0,0.11 0.7,0.303 1.555,0.428c0.855,0.126 1.554,0.036 1.554,-0.2c0,-0.236 -0.699,-0.428 -1.554,-0.428c-0.855,0 -1.555,0.09 -1.555,0.2m255.441,0.48c0,0.089 0.757,0.847 1.684,1.684l1.683,1.522l-1.521,-1.684c-1.419,-1.57 -1.846,-1.922 -1.846,-1.522m12.934,3.924c0.744,0.207 1.425,0.888 1.632,1.632c0.303,1.084 0.364,1.117 0.408,0.214c0.066,-1.357 -0.897,-2.32 -2.254,-2.254c-0.903,0.044 -0.87,0.106 0.214,0.408m27.819,2.002c-0.132,0.214 0.532,0.388 1.475,0.388c0.943,0 1.606,-0.174 1.474,-0.388c-0.132,-0.214 -0.796,-0.389 -1.474,-0.389c-0.679,0 -1.343,0.175 -1.475,0.389m-37.126,2.973c0.997,1.137 1.871,2.167 1.943,2.289c0.071,0.122 0.241,0.109 0.379,-0.028c0.137,-0.137 -0.737,-1.167 -1.943,-2.289l-2.192,-2.038l1.813,2.066m-272.2,2.208c-0.132,0.214 0.531,0.389 1.474,0.389c0.943,0 1.607,-0.175 1.475,-0.389c-0.133,-0.214 -0.796,-0.388 -1.475,-0.388c-0.679,0 -1.342,0.174 -1.474,0.388m26.084,5.7c0.678,0.926 1.314,1.684 1.413,1.684c0.393,0 -0.892,-1.944 -1.741,-2.634c-0.56,-0.454 -0.435,-0.092 0.328,0.95m0.002,9.197c-1.259,1.282 -2.172,2.331 -2.03,2.331c0.143,0 1.289,-1.049 2.548,-2.331c1.258,-1.283 2.171,-2.332 2.029,-2.332c-0.143,0 -1.289,1.049 -2.547,2.332m263.16,-0.519c0.873,1.69 1.591,2.627 1.587,2.073c-0.002,-0.285 -0.48,-1.101 -1.063,-1.814c-0.704,-0.86 -0.88,-0.947 -0.524,-0.259m37.358,1.659c0.427,0.155 1.593,1.011 2.59,1.902l1.814,1.621l-1.786,-1.943c-0.982,-1.069 -2.148,-1.925 -2.59,-1.902c-0.697,0.035 -0.701,0.079 -0.028,0.322m-317.617,6.016c0,0.09 0.758,0.847 1.684,1.684l1.684,1.522l-1.522,-1.684c-1.418,-1.569 -1.846,-1.922 -1.846,-1.522m300.648,0.714c0.498,0.13 1.315,0.13 1.813,0c0.499,-0.131 0.091,-0.237 -0.906,-0.237c-0.998,0 -1.406,0.106 -0.907,0.237m-11.987,1.067c-0.046,0.898 0.209,1.152 1.106,1.106c0.826,-0.043 0.911,-0.127 0.291,-0.291c-0.481,-0.127 -0.979,-0.624 -1.106,-1.106c-0.163,-0.619 -0.248,-0.535 -0.291,0.291m-312.366,-0.031c0.499,0.13 1.315,0.13 1.814,0c0.499,-0.13 0.091,-0.237 -0.907,-0.237c-0.997,0 -1.405,0.107 -0.907,0.237m301.037,2.072c0.498,0.131 1.314,0.131 1.813,0c0.499,-0.13 0.091,-0.236 -0.907,-0.236c-0.997,0 -1.405,0.106 -0.906,0.236m-85.224,0.537c0.931,0.115 2.33,0.113 3.109,-0.005c0.778,-0.119 0.016,-0.213 -1.694,-0.21c-1.709,0.003 -2.346,0.1 -1.415,0.215m8.022,0.514c0.783,0.118 2.066,0.118 2.849,0c0.784,-0.119 0.143,-0.216 -1.424,-0.216c-1.568,0 -2.209,0.097 -1.425,0.216m67.364,0c0.788,0.119 1.954,0.116 2.591,-0.007c0.637,-0.123 -0.007,-0.22 -1.432,-0.216c-1.425,0.004 -1.946,0.104 -1.159,0.223m-58.549,0.519c0.788,0.119 1.953,0.115 2.591,-0.008c0.637,-0.123 -0.007,-0.22 -1.432,-0.216c-1.425,0.004 -1.947,0.104 -1.159,0.224m50.259,0c0.788,0.119 1.954,0.115 2.591,-0.008c0.637,-0.123 -0.007,-0.22 -1.432,-0.216c-1.425,0.004 -1.946,0.104 -1.159,0.224m-30.606,0.532c3.048,0.092 8.178,0.092 11.399,0.001c3.222,-0.091 0.729,-0.166 -5.541,-0.166c-6.269,-0.001 -8.905,0.074 -5.858,0.165m-235.164,1.472c-0.198,0.518 0.234,1.333 1.168,2.202l1.483,1.38l-1.217,-1.398c-0.694,-0.798 -1.084,-1.744 -0.908,-2.202c0.169,-0.442 0.192,-0.804 0.049,-0.804c-0.142,0 -0.401,0.37 -0.575,0.822m85.064,-0.304c0.569,0.245 1.386,0.446 1.813,0.446c0.49,0 0.394,-0.165 -0.259,-0.446c-0.57,-0.245 -1.386,-0.445 -1.814,-0.445c-0.489,0 -0.394,0.165 0.26,0.445m97.653,3.138c-0.314,0.586 -0.494,1.295 -0.4,1.577c0.094,0.281 0.439,-0.198 0.766,-1.065c0.681,-1.804 0.477,-2.088 -0.366,-0.512m-209.669,9.557c0.003,1.709 0.1,2.346 0.215,1.415c0.115,-0.931 0.113,-2.33 -0.005,-3.109c-0.119,-0.778 -0.213,-0.016 -0.21,1.694m41.272,1.683l-2.832,2.98l2.98,-2.832c1.638,-1.558 2.979,-2.899 2.979,-2.98c0,-0.384 -0.495,0.065 -3.127,2.832m296.325,0.26c0.473,0.602 1.342,0.878 2.591,0.823l1.879,-0.083l-1.811,-0.218c-0.996,-0.12 -2.162,-0.491 -2.591,-0.824c-0.679,-0.527 -0.687,-0.488 -0.068,0.302m-65.089,3.336c0.498,0.13 1.315,0.13 1.813,0c0.499,-0.13 0.091,-0.237 -0.907,-0.237c-0.997,0 -1.405,0.107 -0.906,0.237m9.326,0.518c0.499,0.13 1.315,0.13 1.814,0c0.498,-0.13 0.09,-0.237 -0.907,-0.237c-0.997,0 -1.406,0.107 -0.907,0.237m-255.861,4.954l-1.522,1.684l1.684,-1.522c0.926,-0.837 1.684,-1.595 1.684,-1.684c0,-0.4 -0.428,-0.048 -1.846,1.522m82.675,3.756c0.966,0.998 1.874,1.814 2.016,1.814c0.143,0 -0.531,-0.816 -1.498,-1.814c-0.967,-0.997 -1.874,-1.813 -2.017,-1.813c-0.142,0 0.532,0.816 1.499,1.813m113.602,0c0.006,1.14 0.112,1.546 0.236,0.901c0.124,-0.644 0.119,-1.577 -0.011,-2.073c-0.13,-0.495 -0.231,0.032 -0.225,1.172m-193.829,5.204c-0.868,1.905 -0.703,2.312 0.236,0.58c0.438,-0.809 0.7,-1.568 0.582,-1.687c-0.119,-0.118 -0.487,0.38 -0.818,1.107m194.451,20.185c0,10.544 0.069,14.784 0.153,9.422c0.085,-5.362 0.084,-13.989 0,-19.171c-0.084,-5.182 -0.153,-0.795 -0.153,9.749m40.31,-17.099c0.006,1.14 0.112,1.546 0.236,0.901c0.124,-0.644 0.119,-1.577 -0.01,-2.072c-0.13,-0.496 -0.231,0.032 -0.226,1.171m25.388,-1.456c0.499,0.13 1.315,0.13 1.813,0c0.499,-0.13 0.091,-0.237 -0.906,-0.237c-0.998,0 -1.406,0.107 -0.907,0.237m-17.617,17.113c0.784,0.118 2.066,0.118 2.85,0c0.784,-0.119 0.143,-0.216 -1.425,-0.216c-1.567,0 -2.208,0.097 -1.425,0.216m29.092,10.509c0,4.132 0.081,5.823 0.179,3.757c0.098,-2.066 0.098,-5.447 0,-7.513c-0.098,-2.066 -0.179,-0.376 -0.179,3.756m-278.807,1.555c0,1.567 0.097,2.208 0.216,1.425c0.119,-0.784 0.119,-2.067 0,-2.85c-0.119,-0.784 -0.216,-0.143 -0.216,1.425m100.251,-1.69c1.506,0.105 3.837,0.104 5.181,-0.003c1.344,-0.106 0.112,-0.192 -2.737,-0.191c-2.85,0.002 -3.95,0.089 -2.444,0.194m-98.326,18.831c0.005,0.689 0.238,1.602 0.518,2.03c0.358,0.546 0.411,0.239 0.176,-1.037c-0.41,-2.234 -0.704,-2.656 -0.694,-0.993m199.14,5.398c-0.002,2.564 0.086,3.679 0.195,2.476c0.108,-1.202 0.11,-3.301 0.003,-4.663c-0.107,-1.362 -0.196,-0.378 -0.198,2.187m-118.275,0.388c0.118,0.071 0.915,0.713 1.77,1.425l1.554,1.295l-1.256,-1.425c-0.691,-0.783 -1.487,-1.424 -1.77,-1.424c-0.283,0 -0.417,0.058 -0.298,0.129m159.165,11.27c0,1.282 0.101,1.807 0.224,1.165c0.124,-0.641 0.124,-1.69 0,-2.331c-0.123,-0.641 -0.224,-0.117 -0.224,1.166m-167.619,8.147c0.931,0.115 2.33,0.113 3.109,-0.005c0.778,-0.118 0.016,-0.213 -1.693,-0.21c-1.71,0.003 -2.347,0.1 -1.416,0.215m-54.543,7.915c1.404,1.425 2.668,2.59 2.811,2.59c0.142,0 -0.889,-1.165 -2.293,-2.59c-1.403,-1.425 -2.668,-2.591 -2.811,-2.591c-0.142,0 0.89,1.166 2.293,2.591m8.549,6.924c0,0.142 0.7,0.757 1.555,1.366c0.855,0.609 1.554,0.99 1.554,0.848c0,-0.143 -0.699,-0.757 -1.554,-1.366c-0.855,-0.609 -1.555,-0.99 -1.555,-0.848m159.586,5.334c0,0.283 0.641,1.08 1.425,1.771l1.425,1.256l-1.296,-1.555c-0.712,-0.855 -1.353,-1.651 -1.425,-1.77c-0.071,-0.119 -0.129,0.016 -0.129,0.298m49.617,5.725c0.645,0.124 1.577,0.119 2.073,-0.011c0.495,-0.129 -0.032,-0.231 -1.172,-0.225c-1.14,0.006 -1.545,0.112 -0.901,0.236m-32.124,0.518c0.644,0.124 1.577,0.119 2.072,-0.011c0.496,-0.129 -0.032,-0.231 -1.171,-0.225c-1.14,0.006 -1.546,0.112 -0.901,0.236m24.346,-0.001c0.641,0.124 1.691,0.124 2.332,0c0.641,-0.123 0.116,-0.224 -1.166,-0.224c-1.282,0 -1.807,0.101 -1.166,0.224m-159.844,1.028c0.498,0.13 1.314,0.13 1.813,0c0.499,-0.13 0.091,-0.237 -0.907,-0.237c-0.997,0 -1.405,0.107 -0.906,0.237" id="path4"/>
   <path fill-rule="evenodd" fill="#b1b191" d="m234.206994,16.547002c0.787,0.119 1.953,0.116 2.59,-0.007c0.638,-0.123 -0.007,-0.22 -1.432,-0.216c-1.424,0.004 -1.946,0.104 -1.158,0.223m-99.36,8.714c-1.301,0.627 -1.344,0.698 -0.259,0.437c0.713,-0.172 1.517,-0.519 1.788,-0.772c0.671,-0.628 0.303,-0.547 -1.529,0.335m27.368,14.231c0,1.852 0.094,2.61 0.209,1.684c0.115,-0.927 0.115,-2.442 0,-3.368c-0.115,-0.926 -0.209,-0.169 -0.209,1.684m-15.061,1.813c0.006,1.14 0.112,1.545 0.236,0.901c0.124,-0.645 0.119,-1.577 -0.01,-2.073c-0.13,-0.495 -0.232,0.032 -0.226,1.172m16.579,6.834c0.499,0.13 1.315,0.13 1.814,0c0.499,-0.13 0.09,-0.237 -0.907,-0.237c-0.997,0 -1.405,0.107 -0.907,0.237m103.109,8.808c0.499,0.131 1.315,0.131 1.814,0c0.498,-0.13 0.09,-0.237 -0.907,-0.237c-0.998,0 -1.406,0.107 -0.907,0.237m-186.681,8.192c1.25,1.425 2.381,2.708 2.513,2.85c0.133,0.143 -0.004,-0.207 -0.305,-0.777c-0.3,-0.57 -1.431,-1.852 -2.513,-2.85c-1.87,-1.724 -1.855,-1.685 0.305,0.777m240.479,1.863c-0.023,0.455 0.483,1.271 1.124,1.813c1.156,0.979 1.159,0.979 0.327,-0.049c-0.461,-0.57 -0.968,-1.386 -1.125,-1.813c-0.242,-0.66 -0.292,-0.652 -0.326,0.049m-251.559,2.319c-0.19,0.76 -0.246,1.481 -0.124,1.603c0.122,0.122 0.378,-0.399 0.568,-1.158c0.191,-0.76 0.247,-1.481 0.125,-1.603c-0.122,-0.122 -0.378,0.399 -0.569,1.158m255.371,7.088l-1.522,1.684l1.684,-1.522c0.926,-0.837 1.684,-1.595 1.684,-1.684c0,-0.4 -0.427,-0.048 -1.846,1.522m32.416,8.322c0,0.09 0.758,0.847 1.684,1.684l1.684,1.522l-1.522,-1.684c-1.418,-1.569 -1.846,-1.922 -1.846,-1.522m-116.203,30.782c0.92,0.115 2.552,0.117 3.627,0.004c1.075,-0.112 0.322,-0.205 -1.673,-0.208c-1.994,-0.002 -2.874,0.09 -1.954,0.204m-94.548,1.02c0.498,0.13 1.315,0.13 1.813,0c0.499,-0.131 0.091,-0.237 -0.906,-0.237c-0.998,0 -1.406,0.106 -0.907,0.237m-121.329,1.913l-1.251,1.616l1.483,-1.41c0.815,-0.775 1.378,-1.502 1.251,-1.615c-0.128,-0.114 -0.795,0.52 -1.483,1.409m242.323,-1.377c0.931,0.116 2.33,0.113 3.108,-0.005c0.779,-0.118 0.017,-0.213 -1.693,-0.21c-1.71,0.003 -2.347,0.1 -1.415,0.215m39.368,0c0.927,0.114 2.442,0.114 3.368,0c0.927,-0.115 0.169,-0.209 -1.684,-0.209c-1.852,0 -2.61,0.094 -1.684,0.209m-153.756,1.341c0,0.089 0.758,0.847 1.684,1.684l1.684,1.522l-1.522,-1.684c-1.418,-1.57 -1.846,-1.922 -1.846,-1.522m75.768,7.092c0,0.997 0.106,1.405 0.237,0.907c0.13,-0.499 0.13,-1.315 0,-1.814c-0.131,-0.498 -0.237,-0.09 -0.237,0.907m-183.54,5.889c0,0.389 -0.489,1.38 -1.087,2.202l-1.087,1.494l1.346,-1.453c1.191,-1.286 1.804,-2.951 1.087,-2.951c-0.142,0 -0.259,0.319 -0.259,0.708m-7.896,4.84c0.645,0.124 1.578,0.119 2.073,-0.01c0.495,-0.13 -0.032,-0.231 -1.172,-0.226c-1.14,0.006 -1.545,0.112 -0.901,0.236m260.364,1.042c0.788,0.119 1.954,0.116 2.591,-0.007c0.637,-0.123 -0.007,-0.221 -1.432,-0.217c-1.425,0.004 -1.946,0.105 -1.159,0.224m7.247,0.503c0.499,0.131 1.315,0.131 1.813,0c0.499,-0.13 0.091,-0.237 -0.906,-0.237c-0.998,0 -1.406,0.107 -0.907,0.237m-140.942,5.343c0,0.997 0.107,1.405 0.237,0.906c0.13,-0.498 0.13,-1.314 0,-1.813c-0.13,-0.499 -0.237,-0.091 -0.237,0.907m155.884,-0.907c0.12,0.071 1.034,0.829 2.029,1.684l1.811,1.554l-1.521,-1.684c-0.837,-0.926 -1.751,-1.684 -2.03,-1.684c-0.279,0 -0.409,0.059 -0.289,0.13m-77.635,7.383c0.006,1.14 0.112,1.545 0.236,0.901c0.124,-0.645 0.119,-1.577 -0.011,-2.073c-0.13,-0.495 -0.231,0.032 -0.225,1.172m87.952,4.145c0.967,0.998 1.874,1.814 2.017,1.814c0.142,0 -0.532,-0.816 -1.499,-1.814c-0.967,-0.997 -1.874,-1.813 -2.017,-1.813c-0.142,0 0.532,0.816 1.499,1.813m11.625,0.389l-1.521,1.684l1.684,-1.522c0.926,-0.837 1.684,-1.595 1.684,-1.684c0,-0.4 -0.428,-0.048 -1.847,1.522m-6.573,2.309c0.641,0.123 1.69,0.123 2.331,0c0.642,-0.124 0.117,-0.225 -1.165,-0.225c-1.283,0 -1.807,0.101 -1.166,0.225m31.347,2.596c0.784,0.118 2.066,0.118 2.85,0c0.783,-0.119 0.142,-0.216 -1.425,-0.216c-1.567,0 -2.209,0.097 -1.425,0.216m-217.357,5.176c0.641,0.123 1.69,0.123 2.331,0c0.641,-0.124 0.117,-0.225 -1.166,-0.225c-1.282,0 -1.807,0.101 -1.165,0.225m-63.46,4.297c0,1.283 0.101,1.807 0.224,1.166c0.124,-0.641 0.124,-1.69 0,-2.332c-0.123,-0.641 -0.224,-0.116 -0.224,1.166m0.014,7.254c0,1.567 0.097,2.209 0.216,1.425c0.118,-0.784 0.118,-2.066 0,-2.85c-0.119,-0.783 -0.216,-0.142 -0.216,1.425m234.162,13.472c0,0.997 0.106,1.405 0.237,0.906c0.13,-0.498 0.13,-1.314 0,-1.813c-0.131,-0.499 -0.237,-0.091 -0.237,0.907m-77.693,3.367c0.004,1.425 0.105,1.947 0.224,1.159c0.119,-0.787 0.116,-1.953 -0.007,-2.591c-0.123,-0.637 -0.221,0.008 -0.217,1.432m0,5.182c0.004,1.425 0.105,1.946 0.224,1.158c0.119,-0.787 0.116,-1.953 -0.007,-2.59c-0.123,-0.637 -0.221,0.007 -0.217,1.432m41,6.995c0,5.272 0.077,7.428 0.171,4.792c0.094,-2.636 0.094,-6.949 0,-9.585c-0.094,-2.636 -0.171,-0.479 -0.171,4.793m-41.511,6.217c0,1.568 0.097,2.209 0.216,1.425c0.119,-0.784 0.119,-2.066 0,-2.85c-0.119,-0.783 -0.216,-0.142 -0.216,1.425m65.26,1.394c0.498,0.13 1.314,0.13 1.813,0c0.499,-0.131 0.091,-0.237 -0.907,-0.237c-0.997,0 -1.405,0.106 -0.906,0.237m-65.802,5.083c0.005,1.14 0.111,1.545 0.235,0.901c0.124,-0.645 0.12,-1.578 -0.01,-2.073c-0.13,-0.495 -0.231,0.032 -0.225,1.172m-90.562,18.523l-3.092,3.239l3.238,-3.093c3.008,-2.873 3.475,-3.384 3.093,-3.384c-0.081,0 -1.538,1.457 -3.239,3.238m105.092,15.282c2.221,0.098 5.719,0.097 7.772,-0.001c2.053,-0.098 0.235,-0.178 -4.039,-0.177c-4.275,0.001 -5.955,0.081 -3.733,0.178" id="path5"/>
  </g>
 </g>
</svg>